<?xml version="1.0" encoding="utf-8"?>
<!-- Generator: Adobe Illustrator 17.0.0, SVG Export Plug-In . SVG Version: 6.00 Build 0)  -->
<!DOCTYPE svg PUBLIC "-//W3C//DTD SVG 1.1//EN" "http://www.w3.org/Graphics/SVG/1.1/DTD/svg11.dtd">
<svg version="1.1" id="Layer_1" xmlns="http://www.w3.org/2000/svg" xmlns:xlink="http://www.w3.org/1999/xlink" x="0px" y="0px"
	 width="293.333px" height="293.334px" viewBox="0 0 293.333 293.334" enable-background="new 0 0 293.333 293.334"
	 xml:space="preserve">
<g>
	<path fill="none" stroke="#F2E5F2" stroke-width="50" stroke-linecap="round" stroke-linejoin="round" stroke-miterlimit="10" d="
		M146.666,127.873"/>
</g>
<g>
	<g>
		<defs>
			<path id="SVGID_1_" d="M217.149,293.334h-42.266c-9.205,0-16.667-7.462-16.667-16.667S165.679,260,174.884,260h42.266
				c23.628,0,42.85-19.119,42.85-42.621v-42.991c0-9.205,7.462-16.667,16.667-16.667s16.667,7.462,16.667,16.667v42.991
				C293.333,259.261,259.157,293.334,217.149,293.334z M118.588,293.334H76.183C34.175,293.334,0,259.261,0,217.379v-42.66
				c0-9.205,7.462-16.667,16.667-16.667s16.667,7.462,16.667,16.667v42.66c0,23.502,19.223,42.621,42.85,42.621h42.405
				c9.205,0,16.667,7.462,16.667,16.667S127.793,293.334,118.588,293.334z M276.666,135.503c-9.205,0-16.667-7.462-16.667-16.667
				V75.955c0-23.501-19.222-42.622-42.85-42.622h-42.36c-9.205,0-16.667-7.462-16.667-16.667S165.584,0,174.789,0h42.36
				c42.008,0,76.184,34.073,76.184,75.955v42.882C293.333,128.041,285.871,135.503,276.666,135.503z M16.667,135.229
				C7.462,135.229,0,127.768,0,118.563V75.955C0,34.073,34.175,0,76.183,0h42.662c9.205,0,16.667,7.462,16.667,16.667
				s-7.462,16.667-16.667,16.667H76.183c-23.627,0-42.85,19.12-42.85,42.622v42.608C33.333,127.768,25.871,135.229,16.667,135.229z"
				/>
		</defs>
		<clipPath id="SVGID_2_">
			<use xlink:href="#SVGID_1_"  overflow="visible"/>
		</clipPath>
		<polygon clip-path="url(#SVGID_2_)" fill="#519CC5" points="0,135.065 0.307,135.229 0,135.229 		"/>
		<polygon clip-path="url(#SVGID_2_)" fill="#539DC6" points="0,133.469 3.283,135.229 0.307,135.229 0,135.065 		"/>
		<polygon clip-path="url(#SVGID_2_)" fill="#549DC6" points="0,131.873 6.26,135.229 3.283,135.229 0,133.469 		"/>
		<polygon clip-path="url(#SVGID_2_)" fill="#569EC7" points="0,130.277 9.237,135.229 6.26,135.229 0,131.873 		"/>
		<polygon clip-path="url(#SVGID_2_)" fill="#579EC7" points="0,128.68 12.214,135.229 9.237,135.229 0,130.277 		"/>
		<polygon clip-path="url(#SVGID_2_)" fill="#599FC7" points="0,127.084 15.191,135.229 12.214,135.229 0,128.68 		"/>
		<polygon clip-path="url(#SVGID_2_)" fill="#5AA0C8" points="0,125.488 18.168,135.229 15.191,135.229 0,127.084 		"/>
		<polygon clip-path="url(#SVGID_2_)" fill="#5CA0C8" points="0,123.892 21.145,135.229 18.168,135.229 0,125.488 		"/>
		<polygon clip-path="url(#SVGID_2_)" fill="#5DA1C8" points="0,122.296 24.122,135.229 21.145,135.229 0,123.892 		"/>
		<polygon clip-path="url(#SVGID_2_)" fill="#5FA1C9" points="0,120.699 27.099,135.229 24.122,135.229 0,122.296 		"/>
		<polygon clip-path="url(#SVGID_2_)" fill="#60A2C9" points="0,119.103 30.075,135.229 27.099,135.229 0,120.699 		"/>
		<polygon clip-path="url(#SVGID_2_)" fill="#61A3CA" points="0,117.507 33.052,135.229 30.075,135.229 0,119.103 		"/>
		<polygon clip-path="url(#SVGID_2_)" fill="#63A3CA" points="0,115.911 36.029,135.229 33.052,135.229 0,117.507 		"/>
		<polygon clip-path="url(#SVGID_2_)" fill="#64A4CA" points="0,114.315 39.006,135.229 36.029,135.229 0,115.911 		"/>
		<polygon clip-path="url(#SVGID_2_)" fill="#66A4CB" points="0,112.718 41.983,135.229 39.006,135.229 0,114.315 		"/>
		<polygon clip-path="url(#SVGID_2_)" fill="#67A5CB" points="0,111.122 44.96,135.229 41.983,135.229 0,112.718 		"/>
		<polygon clip-path="url(#SVGID_2_)" fill="#68A6CC" points="0,109.526 47.937,135.229 44.96,135.229 0,111.122 		"/>
		<polygon clip-path="url(#SVGID_2_)" fill="#6AA6CC" points="0,107.93 50.914,135.229 47.937,135.229 0,109.526 		"/>
		<polygon clip-path="url(#SVGID_2_)" fill="#6BA7CC" points="0,106.334 53.89,135.229 50.914,135.229 0,107.93 		"/>
		<polygon clip-path="url(#SVGID_2_)" fill="#6CA8CD" points="0,104.737 56.867,135.229 53.89,135.229 0,106.334 		"/>
		<polygon clip-path="url(#SVGID_2_)" fill="#6EA8CD" points="0,103.141 59.844,135.229 56.867,135.229 0,104.737 		"/>
		<polygon clip-path="url(#SVGID_2_)" fill="#6FA9CE" points="0,101.545 62.821,135.229 59.844,135.229 0,103.141 		"/>
		<polygon clip-path="url(#SVGID_2_)" fill="#70A9CE" points="0,99.949 65.798,135.229 62.821,135.229 0,101.545 		"/>
		<polygon clip-path="url(#SVGID_2_)" fill="#71AACE" points="0,98.353 68.775,135.229 65.798,135.229 0,99.949 		"/>
		<polygon clip-path="url(#SVGID_2_)" fill="#73ABCF" points="0,96.757 71.752,135.229 68.775,135.229 0,98.353 		"/>
		<polygon clip-path="url(#SVGID_2_)" fill="#74ABCF" points="0,95.16 74.729,135.229 71.752,135.229 0,96.757 		"/>
		<polygon clip-path="url(#SVGID_2_)" fill="#75ACD0" points="0,93.564 77.705,135.229 74.729,135.229 0,95.16 		"/>
		<polygon clip-path="url(#SVGID_2_)" fill="#76ACD0" points="0,91.968 79.487,134.589 79.144,135.229 77.705,135.229 0,93.564 		
			"/>
		<polygon clip-path="url(#SVGID_2_)" fill="#78ADD0" points="0,90.372 80.152,133.349 79.487,134.589 0,91.968 		"/>
		<polygon clip-path="url(#SVGID_2_)" fill="#79AED1" points="0,88.776 80.817,132.109 80.152,133.349 0,90.372 		"/>
		<polygon clip-path="url(#SVGID_2_)" fill="#7AAED1" points="0,87.179 81.481,130.869 80.817,132.109 0,88.776 		"/>
		<polygon clip-path="url(#SVGID_2_)" fill="#7BAFD2" points="0,85.583 82.146,129.63 81.481,130.869 0,87.179 		"/>
		<polygon clip-path="url(#SVGID_2_)" fill="#7CAFD2" points="0,83.987 82.811,128.39 82.146,129.63 0,85.583 		"/>
		<polygon clip-path="url(#SVGID_2_)" fill="#7DB0D2" points="0,82.391 83.476,127.15 82.811,128.39 0,83.987 		"/>
		<polygon clip-path="url(#SVGID_2_)" fill="#7FB1D3" points="0,80.795 84.14,125.91 83.476,127.15 0,82.391 		"/>
		<polygon clip-path="url(#SVGID_2_)" fill="#80B1D3" points="0,79.198 84.805,124.671 84.14,125.91 0,80.795 		"/>
		<polygon clip-path="url(#SVGID_2_)" fill="#81B2D4" points="0,77.602 85.47,123.431 84.805,124.671 0,79.198 		"/>
		<polygon clip-path="url(#SVGID_2_)" fill="#82B3D4" points="0,76.006 86.135,122.191 85.47,123.431 0,77.602 		"/>
		<polygon clip-path="url(#SVGID_2_)" fill="#83B3D4" points="0,74.41 86.799,120.951 86.135,122.191 0,76.006 		"/>
		<polygon clip-path="url(#SVGID_2_)" fill="#84B4D5" points="0,72.814 87.464,119.712 86.799,120.951 0,74.41 		"/>
		<polygon clip-path="url(#SVGID_2_)" fill="#85B4D5" points="0,71.218 88.129,118.472 87.464,119.712 0,72.814 		"/>
		<polygon clip-path="url(#SVGID_2_)" fill="#87B5D6" points="0,69.621 88.794,117.232 88.129,118.472 0,71.218 		"/>
		<polygon clip-path="url(#SVGID_2_)" fill="#88B6D6" points="0,68.025 89.458,115.992 88.794,117.232 0,69.621 		"/>
		<polygon clip-path="url(#SVGID_2_)" fill="#89B6D6" points="0,66.429 90.123,114.753 89.458,115.992 0,68.025 		"/>
		<polygon clip-path="url(#SVGID_2_)" fill="#8AB7D7" points="0,64.833 90.788,113.513 90.123,114.753 0,66.429 		"/>
		<polygon clip-path="url(#SVGID_2_)" fill="#8BB8D7" points="0,63.237 91.453,112.273 90.788,113.513 0,64.833 		"/>
		<polygon clip-path="url(#SVGID_2_)" fill="#8CB8D7" points="0,61.64 92.117,111.033 91.453,112.273 0,63.237 		"/>
		<polygon clip-path="url(#SVGID_2_)" fill="#8DB9D8" points="0,60.044 92.782,109.794 92.117,111.033 0,61.64 		"/>
		<polygon clip-path="url(#SVGID_2_)" fill="#8EB9D8" points="0,58.448 93.447,108.554 92.782,109.794 0,60.044 		"/>
		<polygon clip-path="url(#SVGID_2_)" fill="#90BAD9" points="0,56.852 94.112,107.314 93.447,108.554 0,58.448 		"/>
		<polygon clip-path="url(#SVGID_2_)" fill="#91BBD9" points="0,55.256 94.776,106.074 94.112,107.314 0,56.852 		"/>
		<polygon clip-path="url(#SVGID_2_)" fill="#92BBD9" points="0,53.659 95.441,104.835 94.776,106.074 0,55.256 		"/>
		<polygon clip-path="url(#SVGID_2_)" fill="#93BCDA" points="0,52.063 96.106,103.595 95.441,104.835 0,53.659 		"/>
		<polygon clip-path="url(#SVGID_2_)" fill="#94BCDA" points="0,50.467 96.771,102.355 96.106,103.595 0,52.063 		"/>
		<polygon clip-path="url(#SVGID_2_)" fill="#95BDDB" points="0,48.871 97.435,101.115 96.771,102.355 0,50.467 		"/>
		<polygon clip-path="url(#SVGID_2_)" fill="#96BEDB" points="0,47.275 98.1,99.876 97.435,101.115 0,48.871 		"/>
		<polygon clip-path="url(#SVGID_2_)" fill="#97BEDB" points="0,45.679 98.765,98.636 98.1,99.876 0,47.275 		"/>
		<polygon clip-path="url(#SVGID_2_)" fill="#98BFDC" points="0,44.082 99.43,97.396 98.765,98.636 0,45.679 		"/>
		<polygon clip-path="url(#SVGID_2_)" fill="#9AC0DC" points="0,42.486 100.094,96.156 99.43,97.396 0,44.082 		"/>
		<polygon clip-path="url(#SVGID_2_)" fill="#9BC0DC" points="0,40.89 100.759,94.917 100.094,96.156 0,42.486 		"/>
		<polygon clip-path="url(#SVGID_2_)" fill="#9CC1DD" points="0,39.294 101.424,93.677 100.759,94.917 0,40.89 		"/>
		<polygon clip-path="url(#SVGID_2_)" fill="#9DC2DD" points="0,37.698 102.089,92.437 101.424,93.677 0,39.294 		"/>
		<polygon clip-path="url(#SVGID_2_)" fill="#9EC2DE" points="0,36.101 102.753,91.197 102.089,92.437 0,37.698 		"/>
		<polygon clip-path="url(#SVGID_2_)" fill="#9FC3DE" points="0,34.505 103.418,89.958 102.753,91.197 0,36.101 		"/>
		<polygon clip-path="url(#SVGID_2_)" fill="#A0C3DE" points="0,32.909 104.083,88.718 103.418,89.958 0,34.505 		"/>
		<polygon clip-path="url(#SVGID_2_)" fill="#A1C4DF" points="0,31.313 104.748,87.478 104.083,88.718 0,32.909 		"/>
		<polygon clip-path="url(#SVGID_2_)" fill="#A3C5DF" points="0,29.84 0.052,29.744 105.412,86.238 104.748,87.478 0,31.313 		"/>
		
			<rect x="52.361" y="-2.404" transform="matrix(-0.4726 0.8813 -0.8813 -0.4726 128.7016 37.7165)" clip-path="url(#SVGID_2_)" fill="#A4C5E0" width="1.407" height="119.551"/>
		
			<rect x="53.026" y="-3.644" transform="matrix(-0.4726 0.8813 -0.8813 -0.4726 128.5879 35.305)" clip-path="url(#SVGID_2_)" fill="#A5C6E0" width="1.407" height="119.551"/>
		
			<rect x="53.691" y="-4.884" transform="matrix(-0.4726 0.8813 -0.8813 -0.4726 128.4742 32.8936)" clip-path="url(#SVGID_2_)" fill="#A6C7E0" width="1.407" height="119.551"/>
		
			<rect x="54.355" y="-6.123" transform="matrix(-0.4726 0.8813 -0.8813 -0.4726 128.3605 30.4821)" clip-path="url(#SVGID_2_)" fill="#A7C7E1" width="1.407" height="119.551"/>
		
			<rect x="55.02" y="-7.363" transform="matrix(-0.4726 0.8813 -0.8813 -0.4726 128.2467 28.0707)" clip-path="url(#SVGID_2_)" fill="#A8C8E1" width="1.407" height="119.551"/>
		
			<rect x="55.685" y="-8.603" transform="matrix(-0.4726 0.8813 -0.8813 -0.4726 128.133 25.6592)" clip-path="url(#SVGID_2_)" fill="#A9C9E1" width="1.407" height="119.551"/>
		
			<rect x="56.35" y="-9.843" transform="matrix(-0.4726 0.8813 -0.8813 -0.4726 128.0193 23.2478)" clip-path="url(#SVGID_2_)" fill="#AAC9E2" width="1.407" height="119.551"/>
		
			<rect x="57.014" y="-11.083" transform="matrix(-0.4726 0.8813 -0.8813 -0.4726 127.9056 20.8363)" clip-path="url(#SVGID_2_)" fill="#ABCAE2" width="1.407" height="119.551"/>
		
			<rect x="57.679" y="-12.322" transform="matrix(-0.4726 0.8813 -0.8813 -0.4726 127.7918 18.4249)" clip-path="url(#SVGID_2_)" fill="#ACCAE3" width="1.407" height="119.551"/>
		
			<rect x="58.344" y="-13.562" transform="matrix(-0.4726 0.8813 -0.8813 -0.4726 127.6781 16.0134)" clip-path="url(#SVGID_2_)" fill="#ADCBE3" width="1.407" height="119.551"/>
		
			<rect x="59.009" y="-14.802" transform="matrix(-0.4726 0.8813 -0.8813 -0.4726 127.5644 13.602)" clip-path="url(#SVGID_2_)" fill="#AFCCE3" width="1.407" height="119.551"/>
		
			<rect x="59.673" y="-16.042" transform="matrix(-0.4726 0.8813 -0.8813 -0.4726 127.4507 11.1906)" clip-path="url(#SVGID_2_)" fill="#B0CCE4" width="1.407" height="119.551"/>
		
			<rect x="60.338" y="-17.281" transform="matrix(-0.4726 0.8813 -0.8813 -0.4726 127.337 8.7791)" clip-path="url(#SVGID_2_)" fill="#B1CDE4" width="1.407" height="119.551"/>
		
			<rect x="61.003" y="-18.521" transform="matrix(-0.4726 0.8813 -0.8813 -0.4726 127.2233 6.3677)" clip-path="url(#SVGID_2_)" fill="#B2CEE4" width="1.407" height="119.551"/>
		
			<rect x="61.668" y="-19.761" transform="matrix(-0.4726 0.8813 -0.8813 -0.4726 127.1095 3.9562)" clip-path="url(#SVGID_2_)" fill="#B3CEE5" width="1.407" height="119.551"/>
		
			<rect x="62.332" y="-21.001" transform="matrix(-0.4726 0.8813 -0.8813 -0.4726 126.9958 1.5448)" clip-path="url(#SVGID_2_)" fill="#B4CFE5" width="1.407" height="119.551"/>
		
			<rect x="62.997" y="-22.24" transform="matrix(-0.4726 0.8813 -0.8813 -0.4726 126.8821 -0.8667)" clip-path="url(#SVGID_2_)" fill="#B5D0E6" width="1.407" height="119.551"/>
		
			<rect x="63.662" y="-23.48" transform="matrix(-0.4726 0.8813 -0.8813 -0.4726 126.7684 -3.2781)" clip-path="url(#SVGID_2_)" fill="#B6D0E6" width="1.407" height="119.551"/>
		
			<rect x="64.327" y="-24.72" transform="matrix(-0.4726 0.8813 -0.8813 -0.4726 126.6546 -5.6896)" clip-path="url(#SVGID_2_)" fill="#B7D1E6" width="1.407" height="119.551"/>
		
			<rect x="64.991" y="-25.96" transform="matrix(-0.4726 0.8813 -0.8813 -0.4726 126.5409 -8.101)" clip-path="url(#SVGID_2_)" fill="#B8D1E7" width="1.407" height="119.551"/>
		
			<rect x="65.656" y="-27.199" transform="matrix(-0.4726 0.8813 -0.8813 -0.4726 126.4272 -10.5125)" clip-path="url(#SVGID_2_)" fill="#B9D2E7" width="1.407" height="119.551"/>
		
			<rect x="66.321" y="-28.439" transform="matrix(-0.4726 0.8813 -0.8813 -0.4726 126.3135 -12.9239)" clip-path="url(#SVGID_2_)" fill="#BAD3E7" width="1.407" height="119.551"/>
		
			<rect x="66.986" y="-29.679" transform="matrix(-0.4726 0.8813 -0.8813 -0.4726 126.1998 -15.3354)" clip-path="url(#SVGID_2_)" fill="#BBD3E8" width="1.407" height="119.551"/>
		<polygon clip-path="url(#SVGID_2_)" fill="#BCD4E8" points="15.341,1.23 16,0 16.024,0 121.366,56.484 120.702,57.724 		"/>
		<polygon clip-path="url(#SVGID_2_)" fill="#BDD5E8" points="19.001,0 122.031,55.244 121.366,56.484 16.024,0 		"/>
		<polygon clip-path="url(#SVGID_2_)" fill="#BED5E9" points="21.978,0 122.696,54.005 122.031,55.244 19.001,0 		"/>
		<polygon clip-path="url(#SVGID_2_)" fill="#BFD6E9" points="24.955,0 123.361,52.765 122.696,54.005 21.978,0 		"/>
		<polygon clip-path="url(#SVGID_2_)" fill="#C0D6EA" points="27.931,0 124.025,51.525 123.361,52.765 24.955,0 		"/>
		<polygon clip-path="url(#SVGID_2_)" fill="#C1D7EA" points="30.908,0 124.69,50.285 124.025,51.525 27.931,0 		"/>
		<polygon clip-path="url(#SVGID_2_)" fill="#C2D8EA" points="33.885,0 125.355,49.046 124.69,50.285 30.908,0 		"/>
		<polygon clip-path="url(#SVGID_2_)" fill="#C3D8EB" points="36.862,0 126.02,47.806 125.355,49.046 33.885,0 		"/>
		<polygon clip-path="url(#SVGID_2_)" fill="#C4D9EB" points="39.839,0 126.684,46.566 126.02,47.806 36.862,0 		"/>
		<polygon clip-path="url(#SVGID_2_)" fill="#C5D9EB" points="42.816,0 127.349,45.326 126.684,46.566 39.839,0 		"/>
		<polygon clip-path="url(#SVGID_2_)" fill="#C6DAEC" points="45.793,0 128.014,44.087 127.349,45.326 42.816,0 		"/>
		<polygon clip-path="url(#SVGID_2_)" fill="#C7DBEC" points="48.77,0 128.679,42.847 128.014,44.087 45.793,0 		"/>
		<polygon clip-path="url(#SVGID_2_)" fill="#C8DBEC" points="51.746,0 129.343,41.607 128.679,42.847 48.77,0 		"/>
		<polygon clip-path="url(#SVGID_2_)" fill="#C9DCED" points="54.723,0 130.008,40.367 129.343,41.607 51.746,0 		"/>
		<polygon clip-path="url(#SVGID_2_)" fill="#CADDED" points="57.7,0 130.673,39.128 130.008,40.367 54.723,0 		"/>
		<polygon clip-path="url(#SVGID_2_)" fill="#CBDDEE" points="60.677,0 131.338,37.888 130.673,39.128 57.7,0 		"/>
		<polygon clip-path="url(#SVGID_2_)" fill="#CCDEEE" points="63.654,0 132.002,36.648 131.338,37.888 60.677,0 		"/>
		<polygon clip-path="url(#SVGID_2_)" fill="#CDDEEE" points="66.631,0 132.667,35.408 132.002,36.648 63.654,0 		"/>
		<polygon clip-path="url(#SVGID_2_)" fill="#CEDFEF" points="69.608,0 133.332,34.169 132.667,35.408 66.631,0 		"/>
		<polygon clip-path="url(#SVGID_2_)" fill="#CFE0EF" points="72.585,0 133.997,32.929 133.332,34.169 69.608,0 		"/>
		<polygon clip-path="url(#SVGID_2_)" fill="#D0E0EF" points="75.561,0 134.661,31.689 133.997,32.929 72.585,0 		"/>
		<polygon clip-path="url(#SVGID_2_)" fill="#D1E1F0" points="78.538,0 135.326,30.449 134.661,31.689 75.561,0 		"/>
		<polygon clip-path="url(#SVGID_2_)" fill="#D2E2F0" points="81.515,0 135.512,28.953 135.512,30.103 135.326,30.449 78.538,0 		
			"/>
		<polygon clip-path="url(#SVGID_2_)" fill="#D3E2F0" points="84.492,0 135.512,27.356 135.512,28.953 81.515,0 		"/>
		<polygon clip-path="url(#SVGID_2_)" fill="#D4E3F1" points="87.469,0 135.512,25.76 135.512,27.356 84.492,0 		"/>
		<polygon clip-path="url(#SVGID_2_)" fill="#D5E4F1" points="90.446,0 135.512,24.164 135.512,25.76 87.469,0 		"/>
		<polygon clip-path="url(#SVGID_2_)" fill="#D6E4F1" points="93.423,0 135.512,22.568 135.512,24.164 90.446,0 		"/>
		<polygon clip-path="url(#SVGID_2_)" fill="#D7E5F2" points="96.4,0 135.512,20.972 135.512,22.568 93.423,0 		"/>
		<polygon clip-path="url(#SVGID_2_)" fill="#D7E5F2" points="99.377,0 135.512,19.376 135.512,20.972 96.4,0 		"/>
		<polygon clip-path="url(#SVGID_2_)" fill="#D8E6F2" points="102.353,0 135.512,17.779 135.512,19.376 99.377,0 		"/>
		<polygon clip-path="url(#SVGID_2_)" fill="#D9E7F3" points="105.33,0 135.512,16.183 135.512,17.779 102.353,0 		"/>
		<polygon clip-path="url(#SVGID_2_)" fill="#DAE7F3" points="108.307,0 135.512,14.587 135.512,16.183 105.33,0 		"/>
		<polygon clip-path="url(#SVGID_2_)" fill="#DBE8F3" points="111.284,0 135.512,12.991 135.512,14.587 108.307,0 		"/>
		<polygon clip-path="url(#SVGID_2_)" fill="#DCE9F4" points="114.261,0 135.512,11.395 135.512,12.991 111.284,0 		"/>
		<polygon clip-path="url(#SVGID_2_)" fill="#DDE9F4" points="117.238,0 135.512,9.798 135.512,11.395 114.261,0 		"/>
		<polygon clip-path="url(#SVGID_2_)" fill="#DEEAF4" points="120.215,0 135.512,8.202 135.512,9.798 117.238,0 		"/>
		<polygon clip-path="url(#SVGID_2_)" fill="#DFEAF5" points="123.192,0 135.512,6.606 135.512,8.202 120.215,0 		"/>
		<polygon clip-path="url(#SVGID_2_)" fill="#E0EBF5" points="126.168,0 135.512,5.01 135.512,6.606 123.192,0 		"/>
		<polygon clip-path="url(#SVGID_2_)" fill="#E1ECF5" points="129.145,0 135.512,3.414 135.512,5.01 126.168,0 		"/>
		<polygon clip-path="url(#SVGID_2_)" fill="#E2ECF6" points="132.122,0 135.512,1.817 135.512,3.414 129.145,0 		"/>
		<polygon clip-path="url(#SVGID_2_)" fill="#E3EDF6" points="135.099,0 135.512,0.221 135.512,1.817 132.122,0 		"/>
		<polygon clip-path="url(#SVGID_2_)" fill="#E4EDF6" points="135.512,0.221 135.099,0 135.512,0 		"/>
		<polygon clip-path="url(#SVGID_2_)" fill="#94BCDA" points="158.122,135.251 158.591,135.503 158.122,135.503 		"/>
		<polygon clip-path="url(#SVGID_2_)" fill="#95BDDB" points="158.122,133.655 161.568,135.503 158.591,135.503 158.122,135.251 		
			"/>
		<polygon clip-path="url(#SVGID_2_)" fill="#96BEDB" points="158.122,132.059 164.545,135.503 161.568,135.503 158.122,133.655 		
			"/>
		<polygon clip-path="url(#SVGID_2_)" fill="#97BEDB" points="158.122,130.463 167.522,135.503 164.545,135.503 158.122,132.059 		
			"/>
		<polygon clip-path="url(#SVGID_2_)" fill="#98BFDC" points="158.122,128.867 170.499,135.503 167.522,135.503 158.122,130.463 		
			"/>
		<polygon clip-path="url(#SVGID_2_)" fill="#9AC0DC" points="158.122,127.27 173.476,135.503 170.499,135.503 158.122,128.867 		
			"/>
		<polygon clip-path="url(#SVGID_2_)" fill="#9BC0DC" points="158.122,125.674 176.452,135.503 173.476,135.503 158.122,127.27 		
			"/>
		<polygon clip-path="url(#SVGID_2_)" fill="#9CC1DD" points="158.122,124.078 179.429,135.503 176.452,135.503 158.122,125.674 		
			"/>
		<polygon clip-path="url(#SVGID_2_)" fill="#9DC2DD" points="158.122,122.482 182.406,135.503 179.429,135.503 158.122,124.078 		
			"/>
		<polygon clip-path="url(#SVGID_2_)" fill="#9EC2DE" points="158.122,120.886 185.383,135.503 182.406,135.503 158.122,122.482 		
			"/>
		<polygon clip-path="url(#SVGID_2_)" fill="#9FC3DE" points="158.122,119.289 188.36,135.503 185.383,135.503 158.122,120.886 		
			"/>
		<polygon clip-path="url(#SVGID_2_)" fill="#A0C3DE" points="158.122,117.693 191.337,135.503 188.36,135.503 158.122,119.289 		
			"/>
		<polygon clip-path="url(#SVGID_2_)" fill="#A1C4DF" points="158.122,116.097 194.314,135.503 191.337,135.503 158.122,117.693 		
			"/>
		<polygon clip-path="url(#SVGID_2_)" fill="#A3C5DF" points="158.122,114.501 197.291,135.503 194.314,135.503 158.122,116.097 		
			"/>
		<polygon clip-path="url(#SVGID_2_)" fill="#A4C5E0" points="158.122,112.905 200.268,135.503 197.291,135.503 158.122,114.501 		
			"/>
		<polygon clip-path="url(#SVGID_2_)" fill="#A5C6E0" points="158.122,111.309 203.244,135.503 200.268,135.503 158.122,112.905 		
			"/>
		<polygon clip-path="url(#SVGID_2_)" fill="#A6C7E0" points="158.122,109.712 206.221,135.503 203.244,135.503 158.122,111.309 		
			"/>
		<polygon clip-path="url(#SVGID_2_)" fill="#A7C7E1" points="158.122,108.116 209.198,135.503 206.221,135.503 158.122,109.712 		
			"/>
		<polygon clip-path="url(#SVGID_2_)" fill="#A8C8E1" points="158.122,106.52 212.175,135.503 209.198,135.503 158.122,108.116 		
			"/>
		<polygon clip-path="url(#SVGID_2_)" fill="#A9C9E1" points="158.122,104.924 215.152,135.503 212.175,135.503 158.122,106.52 		
			"/>
		<polygon clip-path="url(#SVGID_2_)" fill="#AAC9E2" points="158.122,103.328 218.129,135.503 215.152,135.503 158.122,104.924 		
			"/>
		<polygon clip-path="url(#SVGID_2_)" fill="#ABCAE2" points="158.122,101.731 221.106,135.503 218.129,135.503 158.122,103.328 		
			"/>
		<polygon clip-path="url(#SVGID_2_)" fill="#ACCAE3" points="158.122,100.135 224.083,135.503 221.106,135.503 158.122,101.731 		
			"/>
		<polygon clip-path="url(#SVGID_2_)" fill="#ADCBE3" points="158.122,98.539 227.059,135.503 224.083,135.503 158.122,100.135 		
			"/>
		<polygon clip-path="url(#SVGID_2_)" fill="#AFCCE3" points="158.122,96.943 230.036,135.503 227.059,135.503 158.122,98.539 		"/>
		<polygon clip-path="url(#SVGID_2_)" fill="#B0CCE4" points="158.122,95.347 233.013,135.503 230.036,135.503 158.122,96.943 		"/>
		<polygon clip-path="url(#SVGID_2_)" fill="#B1CDE4" points="158.122,93.75 235.99,135.503 233.013,135.503 158.122,95.347 		"/>
		<polygon clip-path="url(#SVGID_2_)" fill="#B2CEE4" points="158.122,92.154 238.967,135.503 235.99,135.503 158.122,93.75 		"/>
		<polygon clip-path="url(#SVGID_2_)" fill="#B3CEE5" points="158.122,90.558 241.944,135.503 238.967,135.503 158.122,92.154 		"/>
		<polygon clip-path="url(#SVGID_2_)" fill="#B4CFE5" points="158.122,88.962 244.921,135.503 241.944,135.503 158.122,90.558 		"/>
		<polygon clip-path="url(#SVGID_2_)" fill="#B5D0E6" points="158.122,87.366 247.898,135.503 244.921,135.503 158.122,88.962 		"/>
		<polygon clip-path="url(#SVGID_2_)" fill="#B6D0E6" points="158.122,85.77 250.874,135.503 247.898,135.503 158.122,87.366 		"/>
		<polygon clip-path="url(#SVGID_2_)" fill="#B7D1E6" points="158.122,84.173 253.851,135.503 250.874,135.503 158.122,85.77 		"/>
		<polygon clip-path="url(#SVGID_2_)" fill="#B8D1E7" points="158.122,82.577 256.828,135.503 253.851,135.503 158.122,84.173 		"/>
		<polygon clip-path="url(#SVGID_2_)" fill="#B9D2E7" points="158.122,80.981 259.805,135.503 256.828,135.503 158.122,82.577 		"/>
		<polygon clip-path="url(#SVGID_2_)" fill="#BAD3E7" points="158.122,79.385 262.782,135.503 259.805,135.503 158.122,80.981 		"/>
		<polygon clip-path="url(#SVGID_2_)" fill="#BBD3E8" points="158.122,77.789 265.759,135.503 262.782,135.503 158.122,79.385 		"/>
		<polygon clip-path="url(#SVGID_2_)" fill="#BCD4E8" points="158.122,76.192 268.736,135.503 265.759,135.503 158.122,77.789 		"/>
		<polygon clip-path="url(#SVGID_2_)" fill="#BDD5E8" points="158.122,74.596 271.713,135.503 268.736,135.503 158.122,76.192 		"/>
		<polygon clip-path="url(#SVGID_2_)" fill="#BED5E9" points="158.122,73 274.69,135.503 271.713,135.503 158.122,74.596 		"/>
		<polygon clip-path="url(#SVGID_2_)" fill="#BFD6E9" points="158.122,71.404 277.666,135.503 274.69,135.503 158.122,73 		"/>
		<polygon clip-path="url(#SVGID_2_)" fill="#C0D6EA" points="158.122,69.808 280.643,135.503 277.666,135.503 158.122,71.404 		"/>
		<polygon clip-path="url(#SVGID_2_)" fill="#C1D7EA" points="158.122,68.211 283.62,135.503 280.643,135.503 158.122,69.808 		"/>
		<polygon clip-path="url(#SVGID_2_)" fill="#C2D8EA" points="158.122,66.615 286.597,135.503 283.62,135.503 158.122,68.211 		"/>
		<polygon clip-path="url(#SVGID_2_)" fill="#C3D8EB" points="158.122,65.019 289.574,135.503 286.597,135.503 158.122,66.615 		"/>
		<polygon clip-path="url(#SVGID_2_)" fill="#C4D9EB" points="158.122,63.423 291.813,135.107 291.601,135.503 289.574,135.503 
			158.122,65.019 		"/>
		<polygon clip-path="url(#SVGID_2_)" fill="#C5D9EB" points="158.122,61.827 292.478,133.868 291.813,135.107 158.122,63.423 		"/>
		<polygon clip-path="url(#SVGID_2_)" fill="#C6DAEC" points="158.122,60.23 293.143,132.628 292.478,133.868 158.122,61.827 		"/>
		<polygon clip-path="url(#SVGID_2_)" fill="#C7DBEC" points="158.122,58.634 293.333,131.134 293.333,132.273 293.143,132.628 
			158.122,60.23 		"/>
		<polygon clip-path="url(#SVGID_2_)" fill="#C8DBEC" points="158.122,57.038 293.333,129.538 293.333,131.134 158.122,58.634 		"/>
		<polygon clip-path="url(#SVGID_2_)" fill="#C9DCED" points="158.122,55.442 293.333,127.941 293.333,129.538 158.122,57.038 		"/>
		<polygon clip-path="url(#SVGID_2_)" fill="#CADDED" points="158.122,53.846 293.333,126.345 293.333,127.941 158.122,55.442 		"/>
		<polygon clip-path="url(#SVGID_2_)" fill="#CBDDEE" points="158.122,52.25 293.333,124.749 293.333,126.345 158.122,53.846 		"/>
		<polygon clip-path="url(#SVGID_2_)" fill="#CCDEEE" points="158.122,50.653 293.333,123.153 293.333,124.749 158.122,52.25 		"/>
		<polygon clip-path="url(#SVGID_2_)" fill="#CDDEEE" points="158.122,49.057 293.333,121.557 293.333,123.153 158.122,50.653 		"/>
		<polygon clip-path="url(#SVGID_2_)" fill="#CEDFEF" points="158.122,47.461 293.333,119.96 293.333,121.557 158.122,49.057 		"/>
		<polygon clip-path="url(#SVGID_2_)" fill="#CFE0EF" points="158.122,45.865 293.333,118.364 293.333,119.96 158.122,47.461 		"/>
		<polygon clip-path="url(#SVGID_2_)" fill="#D0E0EF" points="158.122,44.269 293.333,116.768 293.333,118.364 158.122,45.865 		"/>
		<polygon clip-path="url(#SVGID_2_)" fill="#D1E1F0" points="158.122,42.672 293.333,115.172 293.333,116.768 158.122,44.269 		"/>
		<polygon clip-path="url(#SVGID_2_)" fill="#D2E2F0" points="158.122,41.076 293.333,113.576 293.333,115.172 158.122,42.672 		"/>
		<polygon clip-path="url(#SVGID_2_)" fill="#D3E2F0" points="158.122,39.48 293.333,111.979 293.333,113.576 158.122,41.076 		"/>
		<polygon clip-path="url(#SVGID_2_)" fill="#D4E3F1" points="158.122,37.884 293.333,110.383 293.333,111.979 158.122,39.48 		"/>
		<polygon clip-path="url(#SVGID_2_)" fill="#D5E4F1" points="158.122,36.288 293.333,108.787 293.333,110.383 158.122,37.884 		"/>
		<polygon clip-path="url(#SVGID_2_)" fill="#D6E4F1" points="158.122,34.691 293.333,107.191 293.333,108.787 158.122,36.288 		"/>
		<polygon clip-path="url(#SVGID_2_)" fill="#D7E5F2" points="158.122,33.095 293.333,105.595 293.333,107.191 158.122,34.691 		"/>
		<polygon clip-path="url(#SVGID_2_)" fill="#D7E5F2" points="158.122,31.499 293.333,103.999 293.333,105.595 158.122,33.095 		"/>
		<polygon clip-path="url(#SVGID_2_)" fill="#D8E6F2" points="158.122,29.903 293.333,102.402 293.333,103.999 158.122,31.499 		"/>
		<polygon clip-path="url(#SVGID_2_)" fill="#D9E7F3" points="158.122,28.307 293.333,100.806 293.333,102.402 158.122,29.903 		"/>
		<polygon clip-path="url(#SVGID_2_)" fill="#DAE7F3" points="158.122,26.711 293.333,99.21 293.333,100.806 158.122,28.307 		"/>
		<polygon clip-path="url(#SVGID_2_)" fill="#DBE8F3" points="158.122,25.114 293.333,97.614 293.333,99.21 158.122,26.711 		"/>
		<polygon clip-path="url(#SVGID_2_)" fill="#DCE9F4" points="158.122,23.518 293.333,96.018 293.333,97.614 158.122,25.114 		"/>
		<polygon clip-path="url(#SVGID_2_)" fill="#DDE9F4" points="158.122,21.922 293.333,94.421 293.333,96.018 158.122,23.518 		"/>
		<polygon clip-path="url(#SVGID_2_)" fill="#DEEAF4" points="158.122,20.326 293.333,92.825 293.333,94.421 158.122,21.922 		"/>
		<polygon clip-path="url(#SVGID_2_)" fill="#DFEAF5" points="158.122,18.73 293.333,91.229 293.333,92.825 158.122,20.326 		"/>
		<polygon clip-path="url(#SVGID_2_)" fill="#E0EBF5" points="158.122,17.133 293.333,89.633 293.333,91.229 158.122,18.73 		"/>
		<polygon clip-path="url(#SVGID_2_)" fill="#E1ECF5" points="158.122,15.537 293.333,88.037 293.333,89.633 158.122,17.133 		"/>
		<polygon clip-path="url(#SVGID_2_)" fill="#E2ECF6" points="158.122,13.941 293.333,86.44 293.333,88.037 158.122,15.537 		"/>
		<polygon clip-path="url(#SVGID_2_)" fill="#E3EDF6" points="158.122,12.345 293.333,84.844 293.333,86.44 158.122,13.941 		"/>
		<polygon clip-path="url(#SVGID_2_)" fill="#E4EDF6" points="158.122,10.749 293.333,83.248 293.333,84.844 158.122,12.345 		"/>
		<polygon clip-path="url(#SVGID_2_)" fill="#E4EEF7" points="158.122,9.152 293.333,81.652 293.333,83.248 158.122,10.749 		"/>
		<polygon clip-path="url(#SVGID_2_)" fill="#E5EFF7" points="158.122,7.556 293.333,80.056 293.333,81.652 158.122,9.152 		"/>
		<polygon clip-path="url(#SVGID_2_)" fill="#E6EFF7" points="158.122,5.96 293.333,78.46 293.333,80.056 158.122,7.556 		"/>
		<polygon clip-path="url(#SVGID_2_)" fill="#E7F0F8" points="158.122,4.364 293.333,76.863 293.333,78.46 158.122,5.96 		"/>
		<polygon clip-path="url(#SVGID_2_)" fill="#E8F0F8" points="158.122,3.23 158.314,2.871 293.333,75.267 293.333,76.863 
			158.122,4.364 		"/>
		<polygon clip-path="url(#SVGID_2_)" fill="#E9F1F8" points="158.314,2.871 158.979,1.631 293.333,73.671 293.333,75.267 		"/>
		<polygon clip-path="url(#SVGID_2_)" fill="#EAF2F9" points="158.979,1.631 159.644,0.391 293.333,72.075 293.333,73.671 		"/>
		<polygon clip-path="url(#SVGID_2_)" fill="#EBF2F9" points="159.644,0.391 159.854,0 161.891,0 293.333,70.479 293.333,72.075 		
			"/>
		<polygon clip-path="url(#SVGID_2_)" fill="#ECF3F9" points="164.868,0 293.333,68.882 293.333,70.479 161.891,0 		"/>
		<polygon clip-path="url(#SVGID_2_)" fill="#EDF3F9" points="167.845,0 293.333,67.286 293.333,68.882 164.868,0 		"/>
		<polygon clip-path="url(#SVGID_2_)" fill="#EEF4FA" points="170.822,0 293.333,65.69 293.333,67.286 167.845,0 		"/>
		<polygon clip-path="url(#SVGID_2_)" fill="#EFF4FA" points="173.799,0 293.333,64.094 293.333,65.69 170.822,0 		"/>
		<polygon clip-path="url(#SVGID_2_)" fill="#EFF5FA" points="176.775,0 293.333,62.498 293.333,64.094 173.799,0 		"/>
		<polygon clip-path="url(#SVGID_2_)" fill="#F0F6FA" points="179.752,0 293.333,60.901 293.333,62.498 176.775,0 		"/>
		<polygon clip-path="url(#SVGID_2_)" fill="#F1F6FB" points="182.729,0 293.333,59.305 293.333,60.901 179.752,0 		"/>
		<polygon clip-path="url(#SVGID_2_)" fill="#F2F7FB" points="185.706,0 293.333,57.709 293.333,59.305 182.729,0 		"/>
		<polygon clip-path="url(#SVGID_2_)" fill="#F3F7FB" points="188.683,0 293.333,56.113 293.333,57.709 185.706,0 		"/>
		<polygon clip-path="url(#SVGID_2_)" fill="#F4F8FC" points="191.66,0 293.333,54.517 293.333,56.113 188.683,0 		"/>
		<polygon clip-path="url(#SVGID_2_)" fill="#F5F8FC" points="194.637,0 293.333,52.92 293.333,54.517 191.66,0 		"/>
		<polygon clip-path="url(#SVGID_2_)" fill="#F5F9FC" points="197.614,0 293.333,51.324 293.333,52.92 194.637,0 		"/>
		<polygon clip-path="url(#SVGID_2_)" fill="#F6F9FC" points="200.59,0 293.333,49.728 293.333,51.324 197.614,0 		"/>
		<polygon clip-path="url(#SVGID_2_)" fill="#F7FAFD" points="203.567,0 293.333,48.132 293.333,49.728 200.59,0 		"/>
		<polygon clip-path="url(#SVGID_2_)" fill="#F8FAFD" points="206.544,0 293.333,46.536 293.333,48.132 203.567,0 		"/>
		<polygon clip-path="url(#SVGID_2_)" fill="#F9FBFD" points="209.521,0 293.333,44.94 293.333,46.536 206.544,0 		"/>
		<polygon clip-path="url(#SVGID_2_)" fill="#FAFBFD" points="212.498,0 293.333,43.343 293.333,44.94 209.521,0 		"/>
		<polygon clip-path="url(#SVGID_2_)" fill="#FAFCFE" points="215.475,0 293.333,41.747 293.333,43.343 212.498,0 		"/>
		<polygon clip-path="url(#SVGID_2_)" fill="#FBFCFE" points="218.452,0 293.333,40.151 293.333,41.747 215.475,0 		"/>
		<polygon clip-path="url(#SVGID_2_)" fill="#FCFDFE" points="221.429,0 293.333,38.555 293.333,40.151 218.452,0 		"/>
		<polygon clip-path="url(#SVGID_2_)" fill="#FDFDFE" points="224.406,0 293.333,36.959 293.333,38.555 221.429,0 		"/>
		<polygon clip-path="url(#SVGID_2_)" fill="#FDFEFE" points="227.382,0 293.333,35.362 293.333,36.959 224.406,0 		"/>
		<polygon clip-path="url(#SVGID_2_)" fill="#FEFEFF" points="230.359,0 293.333,33.766 293.333,35.362 227.382,0 		"/>
		<polygon clip-path="url(#SVGID_2_)" fill="#FEFFFF" points="233.336,0 293.333,32.17 293.333,33.766 230.359,0 		"/>
		<polygon clip-path="url(#SVGID_2_)" fill="#FFFFFF" points="236.313,0 293.333,30.574 293.333,32.17 233.336,0 		"/>
		<polygon clip-path="url(#SVGID_2_)" fill="#FFFFFF" points="293.333,30.574 236.313,0 293.333,0 		"/>
		<polygon clip-path="url(#SVGID_2_)" fill="#0070A5" points="0,262.76 57.02,293.334 0,293.334 		"/>
		<polygon clip-path="url(#SVGID_2_)" fill="#0070A5" points="0,261.164 59.997,293.334 57.02,293.334 0,262.76 		"/>
		<polygon clip-path="url(#SVGID_2_)" fill="#0071A5" points="0,259.568 62.974,293.334 59.997,293.334 0,261.164 		"/>
		<polygon clip-path="url(#SVGID_2_)" fill="#0071A6" points="0,257.972 65.95,293.334 62.974,293.334 0,259.568 		"/>
		<polygon clip-path="url(#SVGID_2_)" fill="#0072A6" points="0,256.375 68.927,293.334 65.95,293.334 0,257.972 		"/>
		<polygon clip-path="url(#SVGID_2_)" fill="#0072A6" points="0,254.779 71.904,293.334 68.927,293.334 0,256.375 		"/>
		<polygon clip-path="url(#SVGID_2_)" fill="#0073A7" points="0,253.183 74.881,293.334 71.904,293.334 0,254.779 		"/>
		<polygon clip-path="url(#SVGID_2_)" fill="#0073A7" points="0,251.587 77.858,293.334 74.881,293.334 0,253.183 		"/>
		<polygon clip-path="url(#SVGID_2_)" fill="#0074A8" points="0,249.991 80.835,293.334 77.858,293.334 0,251.587 		"/>
		<polygon clip-path="url(#SVGID_2_)" fill="#0074A8" points="0,248.395 83.812,293.334 80.835,293.334 0,249.991 		"/>
		<polygon clip-path="url(#SVGID_2_)" fill="#0075A8" points="0,246.798 86.789,293.334 83.812,293.334 0,248.395 		"/>
		<polygon clip-path="url(#SVGID_2_)" fill="#0075A9" points="0,245.202 89.765,293.334 86.789,293.334 0,246.798 		"/>
		<polygon clip-path="url(#SVGID_2_)" fill="#0076A9" points="0,243.606 92.742,293.334 89.765,293.334 0,245.202 		"/>
		<polygon clip-path="url(#SVGID_2_)" fill="#0076A9" points="0,242.01 95.719,293.334 92.742,293.334 0,243.606 		"/>
		<polygon clip-path="url(#SVGID_2_)" fill="#0077AA" points="0,240.414 98.696,293.334 95.719,293.334 0,242.01 		"/>
		<polygon clip-path="url(#SVGID_2_)" fill="#0077AA" points="0,238.817 101.673,293.334 98.696,293.334 0,240.414 		"/>
		<polygon clip-path="url(#SVGID_2_)" fill="#0078AB" points="0,237.221 104.65,293.334 101.673,293.334 0,238.817 		"/>
		<polygon clip-path="url(#SVGID_2_)" fill="#0078AB" points="0,235.625 107.627,293.334 104.65,293.334 0,237.221 		"/>
		<polygon clip-path="url(#SVGID_2_)" fill="#0079AB" points="0,234.029 110.604,293.334 107.627,293.334 0,235.625 		"/>
		<polygon clip-path="url(#SVGID_2_)" fill="#0079AC" points="0,232.433 113.581,293.334 110.604,293.334 0,234.029 		"/>
		<polygon clip-path="url(#SVGID_2_)" fill="#007AAC" points="0,230.836 116.557,293.334 113.581,293.334 0,232.433 		"/>
		<polygon clip-path="url(#SVGID_2_)" fill="#007AAD" points="0,229.24 119.534,293.334 116.557,293.334 0,230.836 		"/>
		<polygon clip-path="url(#SVGID_2_)" fill="#007BAD" points="0,227.644 122.511,293.334 119.534,293.334 0,229.24 		"/>
		<polygon clip-path="url(#SVGID_2_)" fill="#007BAD" points="0,226.048 125.488,293.334 122.511,293.334 0,227.644 		"/>
		<polygon clip-path="url(#SVGID_2_)" fill="#007CAE" points="0,224.452 128.465,293.334 125.488,293.334 0,226.048 		"/>
		<polygon clip-path="url(#SVGID_2_)" fill="#007CAE" points="0,222.855 131.442,293.334 128.465,293.334 0,224.452 		"/>
		<polygon clip-path="url(#SVGID_2_)" fill="#007DAF" points="0,221.259 133.723,292.961 133.523,293.334 131.442,293.334 
			0,222.855 		"/>
		<polygon clip-path="url(#SVGID_2_)" fill="#007DAF" points="0,219.663 134.388,291.721 133.723,292.961 0,221.259 		"/>
		<polygon clip-path="url(#SVGID_2_)" fill="#007EB0" points="0,218.067 135.053,290.482 134.388,291.721 0,219.663 		"/>
		<polygon clip-path="url(#SVGID_2_)" fill="#007EB0" points="0,216.471 135.255,288.994 135.255,290.104 135.053,290.482 
			0,218.067 		"/>
		<polygon clip-path="url(#SVGID_2_)" fill="#007FB0" points="0,214.875 135.255,287.398 135.255,288.994 0,216.471 		"/>
		<polygon clip-path="url(#SVGID_2_)" fill="#0080B1" points="0,213.278 135.255,285.801 135.255,287.398 0,214.875 		"/>
		<polygon clip-path="url(#SVGID_2_)" fill="#0080B1" points="0,211.682 135.255,284.205 135.255,285.801 0,213.278 		"/>
		<polygon clip-path="url(#SVGID_2_)" fill="#0081B2" points="0,210.086 135.255,282.609 135.255,284.205 0,211.682 		"/>
		<polygon clip-path="url(#SVGID_2_)" fill="#0081B2" points="0,208.49 135.255,281.013 135.255,282.609 0,210.086 		"/>
		<polygon clip-path="url(#SVGID_2_)" fill="#0082B2" points="0,206.894 135.255,279.417 135.255,281.013 0,208.49 		"/>
		<polygon clip-path="url(#SVGID_2_)" fill="#0082B3" points="0,205.297 135.255,277.82 135.255,279.417 0,206.894 		"/>
		<polygon clip-path="url(#SVGID_2_)" fill="#0083B3" points="0,203.701 135.255,276.224 135.255,277.82 0,205.297 		"/>
		<polygon clip-path="url(#SVGID_2_)" fill="#0083B4" points="0,202.105 135.255,274.628 135.255,276.224 0,203.701 		"/>
		<polygon clip-path="url(#SVGID_2_)" fill="#0084B4" points="0,200.509 135.255,273.032 135.255,274.628 0,202.105 		"/>
		<polygon clip-path="url(#SVGID_2_)" fill="#0085B5" points="0,198.913 135.255,271.436 135.255,273.032 0,200.509 		"/>
		<polygon clip-path="url(#SVGID_2_)" fill="#0085B5" points="0,197.316 135.255,269.84 135.255,271.436 0,198.913 		"/>
		<polygon clip-path="url(#SVGID_2_)" fill="#0086B5" points="0,195.72 135.255,268.243 135.255,269.84 0,197.316 		"/>
		<polygon clip-path="url(#SVGID_2_)" fill="#0086B6" points="0,194.124 135.255,266.647 135.255,268.243 0,195.72 		"/>
		<polygon clip-path="url(#SVGID_2_)" fill="#0087B6" points="0,192.528 135.255,265.051 135.255,266.647 0,194.124 		"/>
		<polygon clip-path="url(#SVGID_2_)" fill="#0087B7" points="0,190.932 135.255,263.455 135.255,265.051 0,192.528 		"/>
		<polygon clip-path="url(#SVGID_2_)" fill="#0088B7" points="0,189.336 135.255,261.859 135.255,263.455 0,190.932 		"/>
		<polygon clip-path="url(#SVGID_2_)" fill="#0089B8" points="0,187.739 135.255,260.262 135.255,261.859 0,189.336 		"/>
		<polygon clip-path="url(#SVGID_2_)" fill="#0089B8" points="0,186.143 135.255,258.666 135.255,260.262 0,187.739 		"/>
		<polygon clip-path="url(#SVGID_2_)" fill="#048AB8" points="0,184.547 135.255,257.07 135.255,258.666 0,186.143 		"/>
		<polygon clip-path="url(#SVGID_2_)" fill="#0B8AB9" points="0,182.951 135.255,255.474 135.255,257.07 0,184.547 		"/>
		<polygon clip-path="url(#SVGID_2_)" fill="#108BB9" points="0,181.355 135.255,253.878 135.255,255.474 0,182.951 		"/>
		<polygon clip-path="url(#SVGID_2_)" fill="#158CBA" points="0,179.758 135.255,252.281 135.255,253.878 0,181.355 		"/>
		<polygon clip-path="url(#SVGID_2_)" fill="#198CBA" points="0,178.162 135.255,250.685 135.255,252.281 0,179.758 		"/>
		<polygon clip-path="url(#SVGID_2_)" fill="#1C8DBB" points="0,176.566 135.255,249.089 135.255,250.685 0,178.162 		"/>
		<polygon clip-path="url(#SVGID_2_)" fill="#1F8DBB" points="0,174.97 135.255,247.493 135.255,249.089 0,176.566 		"/>
		<polygon clip-path="url(#SVGID_2_)" fill="#228EBC" points="0,173.374 135.255,245.897 135.255,247.493 0,174.97 		"/>
		<polygon clip-path="url(#SVGID_2_)" fill="#258EBC" points="0,171.777 135.255,244.3 135.255,245.897 0,173.374 		"/>
		<polygon clip-path="url(#SVGID_2_)" fill="#278FBC" points="0,170.181 135.255,242.704 135.255,244.3 0,171.777 		"/>
		<polygon clip-path="url(#SVGID_2_)" fill="#2A90BD" points="0,168.585 135.255,241.108 135.255,242.704 0,170.181 		"/>
		<polygon clip-path="url(#SVGID_2_)" fill="#2C90BD" points="0,166.989 135.255,239.512 135.255,241.108 0,168.585 		"/>
		<polygon clip-path="url(#SVGID_2_)" fill="#2E91BE" points="0,165.393 135.255,237.916 135.255,239.512 0,166.989 		"/>
		<polygon clip-path="url(#SVGID_2_)" fill="#3191BE" points="0,163.796 135.255,236.32 135.255,237.916 0,165.393 		"/>
		<polygon clip-path="url(#SVGID_2_)" fill="#3392BF" points="0,162.2 135.255,234.723 135.255,236.32 0,163.796 		"/>
		<polygon clip-path="url(#SVGID_2_)" fill="#3593BF" points="0,161.281 0.282,160.755 135.255,233.127 135.255,234.723 0,162.2 		
			"/>
		<polygon clip-path="url(#SVGID_2_)" fill="#3793BF" points="0.282,160.755 0.947,159.516 135.255,231.531 135.255,233.127 		"/>
		<polygon clip-path="url(#SVGID_2_)" fill="#3994C0" points="0.947,159.516 1.612,158.276 135.255,229.935 135.255,231.531 		"/>
		<polygon clip-path="url(#SVGID_2_)" fill="#3B94C0" points="1.612,158.276 1.732,158.052 4.171,158.052 135.255,228.339 
			135.255,229.935 		"/>
		<polygon clip-path="url(#SVGID_2_)" fill="#3D95C1" points="7.147,158.052 135.255,226.742 135.255,228.339 4.171,158.052 		"/>
		<polygon clip-path="url(#SVGID_2_)" fill="#3F96C1" points="10.124,158.052 135.255,225.146 135.255,226.742 7.147,158.052 		"/>
		<polygon clip-path="url(#SVGID_2_)" fill="#4196C1" points="13.101,158.052 135.255,223.55 135.255,225.146 10.124,158.052 		"/>
		<polygon clip-path="url(#SVGID_2_)" fill="#4297C2" points="16.078,158.052 135.255,221.954 135.255,223.55 13.101,158.052 		"/>
		<polygon clip-path="url(#SVGID_2_)" fill="#4497C2" points="19.055,158.052 135.255,220.358 135.255,221.954 16.078,158.052 		"/>
		<polygon clip-path="url(#SVGID_2_)" fill="#4698C3" points="22.032,158.052 135.255,218.761 135.255,220.358 19.055,158.052 		"/>
		<polygon clip-path="url(#SVGID_2_)" fill="#4898C3" points="25.009,158.052 135.255,217.165 135.255,218.761 22.032,158.052 		"/>
		<polygon clip-path="url(#SVGID_2_)" fill="#4999C3" points="27.986,158.052 135.255,215.569 135.255,217.165 25.009,158.052 		"/>
		<polygon clip-path="url(#SVGID_2_)" fill="#4B9AC4" points="30.962,158.052 135.255,213.973 135.255,215.569 27.986,158.052 		"/>
		<polygon clip-path="url(#SVGID_2_)" fill="#4C9AC4" points="33.939,158.052 135.255,212.377 135.255,213.973 30.962,158.052 		"/>
		<polygon clip-path="url(#SVGID_2_)" fill="#4E9BC5" points="36.916,158.052 135.255,210.781 135.255,212.377 33.939,158.052 		"/>
		<polygon clip-path="url(#SVGID_2_)" fill="#509BC5" points="39.893,158.052 135.255,209.184 135.255,210.781 36.916,158.052 		"/>
		<polygon clip-path="url(#SVGID_2_)" fill="#519CC5" points="42.87,158.052 135.255,207.588 135.255,209.184 39.893,158.052 		"/>
		<polygon clip-path="url(#SVGID_2_)" fill="#539DC6" points="45.847,158.052 135.255,205.992 135.255,207.588 42.87,158.052 		"/>
		<polygon clip-path="url(#SVGID_2_)" fill="#549DC6" points="48.824,158.052 135.255,204.396 135.255,205.992 45.847,158.052 		"/>
		<polygon clip-path="url(#SVGID_2_)" fill="#569EC7" points="51.801,158.052 135.255,202.8 135.255,204.396 48.824,158.052 		"/>
		<polygon clip-path="url(#SVGID_2_)" fill="#579EC7" points="54.777,158.052 135.255,201.203 135.255,202.8 51.801,158.052 		"/>
		<polygon clip-path="url(#SVGID_2_)" fill="#599FC7" points="57.754,158.052 135.255,199.607 135.255,201.203 54.777,158.052 		"/>
		<polygon clip-path="url(#SVGID_2_)" fill="#5AA0C8" points="60.731,158.052 135.255,198.011 135.255,199.607 57.754,158.052 		"/>
		<polygon clip-path="url(#SVGID_2_)" fill="#5CA0C8" points="63.708,158.052 135.255,196.415 135.255,198.011 60.731,158.052 		"/>
		<polygon clip-path="url(#SVGID_2_)" fill="#5DA1C8" points="66.685,158.052 135.255,194.819 135.255,196.415 63.708,158.052 		"/>
		<polygon clip-path="url(#SVGID_2_)" fill="#5FA1C9" points="69.662,158.052 135.255,193.222 135.255,194.819 66.685,158.052 		"/>
		<polygon clip-path="url(#SVGID_2_)" fill="#60A2C9" points="72.639,158.052 135.255,191.626 135.255,193.222 69.662,158.052 		"/>
		<polygon clip-path="url(#SVGID_2_)" fill="#61A3CA" points="75.616,158.052 135.255,190.03 135.255,191.626 72.639,158.052 		"/>
		<polygon clip-path="url(#SVGID_2_)" fill="#63A3CA" points="78.593,158.052 135.255,188.434 135.255,190.03 75.616,158.052 		"/>
		<polygon clip-path="url(#SVGID_2_)" fill="#64A4CA" points="81.569,158.052 135.255,186.838 135.255,188.434 78.593,158.052 		"/>
		<polygon clip-path="url(#SVGID_2_)" fill="#66A4CB" points="84.546,158.052 135.255,185.241 135.255,186.838 81.569,158.052 		"/>
		<polygon clip-path="url(#SVGID_2_)" fill="#67A5CB" points="87.523,158.052 135.255,183.645 135.255,185.241 84.546,158.052 		"/>
		<polygon clip-path="url(#SVGID_2_)" fill="#68A6CC" points="90.5,158.052 135.255,182.049 135.255,183.645 87.523,158.052 		"/>
		<polygon clip-path="url(#SVGID_2_)" fill="#6AA6CC" points="93.477,158.052 135.255,180.453 135.255,182.049 90.5,158.052 		"/>
		<polygon clip-path="url(#SVGID_2_)" fill="#6BA7CC" points="96.454,158.052 135.255,178.857 135.255,180.453 93.477,158.052 		"/>
		<polygon clip-path="url(#SVGID_2_)" fill="#6CA8CD" points="99.431,158.052 135.255,177.261 135.255,178.857 96.454,158.052 		"/>
		<polygon clip-path="url(#SVGID_2_)" fill="#6EA8CD" points="102.408,158.052 135.255,175.664 135.255,177.261 99.431,158.052 		
			"/>
		<polygon clip-path="url(#SVGID_2_)" fill="#6FA9CE" points="105.384,158.052 135.255,174.068 135.255,175.664 102.408,158.052 		
			"/>
		<polygon clip-path="url(#SVGID_2_)" fill="#70A9CE" points="108.361,158.052 135.255,172.472 135.255,174.068 105.384,158.052 		
			"/>
		<polygon clip-path="url(#SVGID_2_)" fill="#71AACE" points="111.338,158.052 135.255,170.876 135.255,172.472 108.361,158.052 		
			"/>
		<polygon clip-path="url(#SVGID_2_)" fill="#73ABCF" points="114.315,158.052 135.255,169.28 135.255,170.876 111.338,158.052 		
			"/>
		<polygon clip-path="url(#SVGID_2_)" fill="#74ABCF" points="117.292,158.052 135.255,167.683 135.255,169.28 114.315,158.052 		
			"/>
		<polygon clip-path="url(#SVGID_2_)" fill="#75ACD0" points="120.269,158.052 135.255,166.087 135.255,167.683 117.292,158.052 		
			"/>
		<polygon clip-path="url(#SVGID_2_)" fill="#76ACD0" points="123.246,158.052 135.255,164.491 135.255,166.087 120.269,158.052 		
			"/>
		<polygon clip-path="url(#SVGID_2_)" fill="#78ADD0" points="126.223,158.052 135.255,162.895 135.255,164.491 123.246,158.052 		
			"/>
		<polygon clip-path="url(#SVGID_2_)" fill="#79AED1" points="129.199,158.052 135.255,161.299 135.255,162.895 126.223,158.052 		
			"/>
		<polygon clip-path="url(#SVGID_2_)" fill="#7AAED1" points="132.176,158.052 135.255,159.702 135.255,161.299 129.199,158.052 		
			"/>
		<polygon clip-path="url(#SVGID_2_)" fill="#7BAFD2" points="135.153,158.052 135.255,158.106 135.255,159.702 132.176,158.052 		
			"/>
		<polygon clip-path="url(#SVGID_2_)" fill="#7CAFD2" points="135.255,158.106 135.153,158.052 135.255,158.052 		"/>
		<polygon clip-path="url(#SVGID_2_)" fill="#0081B2" points="158.217,293.325 158.234,293.334 158.217,293.334 		"/>
		<polygon clip-path="url(#SVGID_2_)" fill="#0082B2" points="158.217,291.729 161.211,293.334 158.234,293.334 158.217,293.325 		
			"/>
		<polygon clip-path="url(#SVGID_2_)" fill="#0082B3" points="158.217,290.133 164.188,293.334 161.211,293.334 158.217,291.729 		
			"/>
		<polygon clip-path="url(#SVGID_2_)" fill="#0083B3" points="158.217,288.536 167.164,293.334 164.188,293.334 158.217,290.133 		
			"/>
		<polygon clip-path="url(#SVGID_2_)" fill="#0083B4" points="158.217,286.94 170.141,293.334 167.164,293.334 158.217,288.536 		
			"/>
		<polygon clip-path="url(#SVGID_2_)" fill="#0084B4" points="158.217,285.344 173.118,293.334 170.141,293.334 158.217,286.94 		
			"/>
		<polygon clip-path="url(#SVGID_2_)" fill="#0085B5" points="158.217,283.748 176.095,293.334 173.118,293.334 158.217,285.344 		
			"/>
		<polygon clip-path="url(#SVGID_2_)" fill="#0085B5" points="158.217,282.152 179.072,293.334 176.095,293.334 158.217,283.748 		
			"/>
		<polygon clip-path="url(#SVGID_2_)" fill="#0086B5" points="158.217,280.555 182.049,293.334 179.072,293.334 158.217,282.152 		
			"/>
		<polygon clip-path="url(#SVGID_2_)" fill="#0086B6" points="158.217,278.959 185.026,293.334 182.049,293.334 158.217,280.555 		
			"/>
		<polygon clip-path="url(#SVGID_2_)" fill="#0087B6" points="158.217,277.363 188.003,293.334 185.026,293.334 158.217,278.959 		
			"/>
		<polygon clip-path="url(#SVGID_2_)" fill="#0087B7" points="158.217,275.767 190.979,293.334 188.003,293.334 158.217,277.363 		
			"/>
		<polygon clip-path="url(#SVGID_2_)" fill="#0088B7" points="158.217,274.171 193.956,293.334 190.979,293.334 158.217,275.767 		
			"/>
		<polygon clip-path="url(#SVGID_2_)" fill="#0089B8" points="158.217,272.574 196.933,293.334 193.956,293.334 158.217,274.171 		
			"/>
		<polygon clip-path="url(#SVGID_2_)" fill="#0089B8" points="158.217,270.978 199.91,293.334 196.933,293.334 158.217,272.574 		
			"/>
		<polygon clip-path="url(#SVGID_2_)" fill="#048AB8" points="158.217,269.382 202.887,293.334 199.91,293.334 158.217,270.978 		
			"/>
		<polygon clip-path="url(#SVGID_2_)" fill="#0B8AB9" points="158.217,267.786 205.864,293.334 202.887,293.334 158.217,269.382 		
			"/>
		<polygon clip-path="url(#SVGID_2_)" fill="#108BB9" points="158.217,266.19 208.841,293.334 205.864,293.334 158.217,267.786 		
			"/>
		<polygon clip-path="url(#SVGID_2_)" fill="#158CBA" points="158.217,264.594 211.818,293.334 208.841,293.334 158.217,266.19 		
			"/>
		<polygon clip-path="url(#SVGID_2_)" fill="#198CBA" points="158.217,263.23 158.314,263.049 214.794,293.334 211.818,293.334 
			158.217,264.594 		"/>
		<polygon clip-path="url(#SVGID_2_)" fill="#1C8DBB" points="158.314,263.049 158.978,261.809 217.771,293.334 214.794,293.334 		
			"/>
		<polygon clip-path="url(#SVGID_2_)" fill="#1F8DBB" points="158.978,261.809 159.643,260.57 220.748,293.334 217.771,293.334 		
			"/>
		<polygon clip-path="url(#SVGID_2_)" fill="#228EBC" points="159.643,260.57 160.308,259.33 223.725,293.334 220.748,293.334 		"/>
		<polygon clip-path="url(#SVGID_2_)" fill="#258EBC" points="160.308,259.33 160.973,258.09 226.702,293.334 223.725,293.334 		"/>
		<polygon clip-path="url(#SVGID_2_)" fill="#278FBC" points="160.973,258.09 161.637,256.85 229.679,293.334 226.702,293.334 		"/>
		<polygon clip-path="url(#SVGID_2_)" fill="#2A90BD" points="161.637,256.85 162.302,255.611 232.656,293.334 229.679,293.334 		
			"/>
		<polygon clip-path="url(#SVGID_2_)" fill="#2C90BD" points="162.302,255.611 162.967,254.371 235.633,293.334 232.656,293.334 		
			"/>
		<polygon clip-path="url(#SVGID_2_)" fill="#2E91BE" points="162.967,254.371 163.632,253.131 238.61,293.334 235.633,293.334 		
			"/>
		<polygon clip-path="url(#SVGID_2_)" fill="#3191BE" points="163.632,253.131 164.296,251.891 241.586,293.334 238.61,293.334 		
			"/>
		<polygon clip-path="url(#SVGID_2_)" fill="#3392BF" points="164.296,251.891 164.961,250.652 244.563,293.334 241.586,293.334 		
			"/>
		<polygon clip-path="url(#SVGID_2_)" fill="#3593BF" points="164.961,250.652 165.626,249.412 247.54,293.334 244.563,293.334 		
			"/>
		<polygon clip-path="url(#SVGID_2_)" fill="#3793BF" points="165.626,249.412 166.291,248.172 250.517,293.334 247.54,293.334 		
			"/>
		<polygon clip-path="url(#SVGID_2_)" fill="#3994C0" points="166.291,248.172 166.955,246.932 253.494,293.334 250.517,293.334 		
			"/>
		<polygon clip-path="url(#SVGID_2_)" fill="#3B94C0" points="166.955,246.932 167.62,245.693 256.471,293.334 253.494,293.334 		
			"/>
		<polygon clip-path="url(#SVGID_2_)" fill="#3D95C1" points="167.62,245.693 168.285,244.453 259.448,293.334 256.471,293.334 		
			"/>
		<polygon clip-path="url(#SVGID_2_)" fill="#3F96C1" points="168.285,244.453 168.95,243.213 262.425,293.334 259.448,293.334 		
			"/>
		<polygon clip-path="url(#SVGID_2_)" fill="#4196C1" points="168.95,243.213 169.614,241.973 265.401,293.334 262.425,293.334 		
			"/>
		<polygon clip-path="url(#SVGID_2_)" fill="#4297C2" points="169.614,241.973 170.279,240.734 268.378,293.334 265.401,293.334 		
			"/>
		<polygon clip-path="url(#SVGID_2_)" fill="#4497C2" points="170.279,240.734 170.944,239.494 271.355,293.334 268.378,293.334 		
			"/>
		<polygon clip-path="url(#SVGID_2_)" fill="#4698C3" points="170.944,239.494 171.609,238.254 274.332,293.334 271.355,293.334 		
			"/>
		<polygon clip-path="url(#SVGID_2_)" fill="#4898C3" points="171.609,238.254 172.273,237.014 277.309,293.334 274.332,293.334 		
			"/>
		<polygon clip-path="url(#SVGID_2_)" fill="#4999C3" points="172.273,237.014 172.938,235.775 277.992,292.104 277.332,293.334 
			277.309,293.334 		"/>
		
			<rect x="225.094" y="203.718" transform="matrix(-0.4726 0.8813 -0.8813 -0.4726 564.5624 188.7552)" clip-path="url(#SVGID_2_)" fill="#4B9AC4" width="1.407" height="119.203"/>
		
			<rect x="225.759" y="202.478" transform="matrix(-0.4726 0.8813 -0.8813 -0.4726 564.4487 186.3438)" clip-path="url(#SVGID_2_)" fill="#4C9AC4" width="1.407" height="119.203"/>
		
			<rect x="226.423" y="201.238" transform="matrix(-0.4726 0.8813 -0.8813 -0.4726 564.335 183.9324)" clip-path="url(#SVGID_2_)" fill="#4E9BC5" width="1.407" height="119.203"/>
		
			<rect x="227.088" y="199.999" transform="matrix(-0.4726 0.8813 -0.8813 -0.4726 564.2213 181.5209)" clip-path="url(#SVGID_2_)" fill="#509BC5" width="1.407" height="119.203"/>
		
			<rect x="227.753" y="198.759" transform="matrix(-0.4726 0.8813 -0.8813 -0.4726 564.1075 179.1095)" clip-path="url(#SVGID_2_)" fill="#519CC5" width="1.407" height="119.203"/>
		
			<rect x="228.418" y="197.519" transform="matrix(-0.4726 0.8813 -0.8813 -0.4726 563.9938 176.698)" clip-path="url(#SVGID_2_)" fill="#539DC6" width="1.407" height="119.203"/>
		
			<rect x="229.082" y="196.279" transform="matrix(-0.4726 0.8813 -0.8813 -0.4726 563.8801 174.2866)" clip-path="url(#SVGID_2_)" fill="#549DC6" width="1.407" height="119.203"/>
		
			<rect x="229.747" y="195.04" transform="matrix(-0.4726 0.8813 -0.8813 -0.4726 563.7664 171.8751)" clip-path="url(#SVGID_2_)" fill="#569EC7" width="1.407" height="119.203"/>
		
			<rect x="230.412" y="193.8" transform="matrix(-0.4726 0.8813 -0.8813 -0.4726 563.6526 169.4637)" clip-path="url(#SVGID_2_)" fill="#579EC7" width="1.407" height="119.203"/>
		
			<rect x="231.077" y="192.56" transform="matrix(-0.4726 0.8813 -0.8813 -0.4726 563.5389 167.0522)" clip-path="url(#SVGID_2_)" fill="#599FC7" width="1.407" height="119.203"/>
		
			<rect x="231.741" y="191.32" transform="matrix(-0.4726 0.8813 -0.8813 -0.4726 563.4252 164.6408)" clip-path="url(#SVGID_2_)" fill="#5AA0C8" width="1.407" height="119.203"/>
		
			<rect x="232.406" y="190.081" transform="matrix(-0.4726 0.8813 -0.8813 -0.4726 563.3115 162.2293)" clip-path="url(#SVGID_2_)" fill="#5CA0C8" width="1.407" height="119.203"/>
		
			<rect x="233.071" y="188.841" transform="matrix(-0.4726 0.8813 -0.8813 -0.4726 563.1978 159.8179)" clip-path="url(#SVGID_2_)" fill="#5DA1C8" width="1.407" height="119.203"/>
		
			<rect x="233.736" y="187.601" transform="matrix(-0.4726 0.8813 -0.8813 -0.4726 563.084 157.4064)" clip-path="url(#SVGID_2_)" fill="#5FA1C9" width="1.407" height="119.203"/>
		
			<rect x="234.4" y="186.361" transform="matrix(-0.4726 0.8813 -0.8813 -0.4726 562.9703 154.995)" clip-path="url(#SVGID_2_)" fill="#60A2C9" width="1.407" height="119.203"/>
		
			<rect x="235.065" y="185.122" transform="matrix(-0.4726 0.8813 -0.8813 -0.4726 562.8566 152.5836)" clip-path="url(#SVGID_2_)" fill="#61A3CA" width="1.407" height="119.203"/>
		
			<rect x="235.73" y="183.882" transform="matrix(-0.4726 0.8813 -0.8813 -0.4726 562.7429 150.1721)" clip-path="url(#SVGID_2_)" fill="#63A3CA" width="1.407" height="119.203"/>
		
			<rect x="236.395" y="182.642" transform="matrix(-0.4726 0.8813 -0.8813 -0.4726 562.6292 147.7607)" clip-path="url(#SVGID_2_)" fill="#64A4CA" width="1.407" height="119.203"/>
		
			<rect x="237.06" y="181.402" transform="matrix(-0.4726 0.8813 -0.8813 -0.4726 562.5154 145.3492)" clip-path="url(#SVGID_2_)" fill="#66A4CB" width="1.407" height="119.203"/>
		
			<rect x="237.724" y="180.163" transform="matrix(-0.4726 0.8813 -0.8813 -0.4726 562.4017 142.9378)" clip-path="url(#SVGID_2_)" fill="#67A5CB" width="1.407" height="119.203"/>
		
			<rect x="238.389" y="178.923" transform="matrix(-0.4726 0.8813 -0.8813 -0.4726 562.288 140.5263)" clip-path="url(#SVGID_2_)" fill="#68A6CC" width="1.407" height="119.203"/>
		
			<rect x="239.054" y="177.683" transform="matrix(-0.4726 0.8813 -0.8813 -0.4726 562.1743 138.1149)" clip-path="url(#SVGID_2_)" fill="#6AA6CC" width="1.407" height="119.203"/>
		
			<rect x="239.719" y="176.443" transform="matrix(-0.4726 0.8813 -0.8813 -0.4726 562.0605 135.7034)" clip-path="url(#SVGID_2_)" fill="#6BA7CC" width="1.407" height="119.203"/>
		<polygon clip-path="url(#SVGID_2_)" fill="#6CA8CD" points="188.227,207.26 188.892,206.021 293.333,262.021 293.333,263.493 
			293.281,263.59 		"/>
		<polygon clip-path="url(#SVGID_2_)" fill="#6EA8CD" points="188.892,206.021 189.557,204.781 293.333,260.425 293.333,262.021 		
			"/>
		<polygon clip-path="url(#SVGID_2_)" fill="#6FA9CE" points="189.557,204.781 190.222,203.541 293.333,258.829 293.333,260.425 		
			"/>
		<polygon clip-path="url(#SVGID_2_)" fill="#70A9CE" points="190.222,203.541 190.886,202.301 293.333,257.233 293.333,258.829 		
			"/>
		<polygon clip-path="url(#SVGID_2_)" fill="#71AACE" points="190.886,202.301 191.551,201.061 293.333,255.637 293.333,257.233 		
			"/>
		<polygon clip-path="url(#SVGID_2_)" fill="#73ABCF" points="191.551,201.061 192.216,199.822 293.333,254.04 293.333,255.637 		
			"/>
		<polygon clip-path="url(#SVGID_2_)" fill="#74ABCF" points="192.216,199.822 192.881,198.582 293.333,252.444 293.333,254.04 		
			"/>
		<polygon clip-path="url(#SVGID_2_)" fill="#75ACD0" points="192.881,198.582 193.545,197.342 293.333,250.848 293.333,252.444 		
			"/>
		<polygon clip-path="url(#SVGID_2_)" fill="#76ACD0" points="193.545,197.342 194.21,196.102 293.333,249.252 293.333,250.848 		
			"/>
		<polygon clip-path="url(#SVGID_2_)" fill="#78ADD0" points="194.21,196.102 194.875,194.863 293.333,247.656 293.333,249.252 		
			"/>
		<polygon clip-path="url(#SVGID_2_)" fill="#79AED1" points="194.875,194.863 195.54,193.623 293.333,246.059 293.333,247.656 		
			"/>
		<polygon clip-path="url(#SVGID_2_)" fill="#7AAED1" points="195.54,193.623 196.204,192.383 293.333,244.463 293.333,246.059 		
			"/>
		<polygon clip-path="url(#SVGID_2_)" fill="#7BAFD2" points="196.204,192.383 196.869,191.143 293.333,242.867 293.333,244.463 		
			"/>
		<polygon clip-path="url(#SVGID_2_)" fill="#7CAFD2" points="196.869,191.143 197.534,189.904 293.333,241.271 293.333,242.867 		
			"/>
		<polygon clip-path="url(#SVGID_2_)" fill="#7DB0D2" points="197.534,189.904 198.199,188.664 293.333,239.675 293.333,241.271 		
			"/>
		<polygon clip-path="url(#SVGID_2_)" fill="#7FB1D3" points="198.199,188.664 198.863,187.424 293.333,238.078 293.333,239.675 		
			"/>
		<polygon clip-path="url(#SVGID_2_)" fill="#80B1D3" points="198.863,187.424 199.528,186.184 293.333,236.482 293.333,238.078 		
			"/>
		<polygon clip-path="url(#SVGID_2_)" fill="#81B2D4" points="199.528,186.184 200.193,184.945 293.333,234.886 293.333,236.482 		
			"/>
		<polygon clip-path="url(#SVGID_2_)" fill="#82B3D4" points="200.193,184.945 200.858,183.705 293.333,233.29 293.333,234.886 		
			"/>
		<polygon clip-path="url(#SVGID_2_)" fill="#83B3D4" points="200.858,183.705 201.522,182.465 293.333,231.694 293.333,233.29 		
			"/>
		<polygon clip-path="url(#SVGID_2_)" fill="#84B4D5" points="201.522,182.465 202.187,181.225 293.333,230.097 293.333,231.694 		
			"/>
		<polygon clip-path="url(#SVGID_2_)" fill="#85B4D5" points="202.187,181.225 202.852,179.986 293.333,228.501 293.333,230.097 		
			"/>
		<polygon clip-path="url(#SVGID_2_)" fill="#87B5D6" points="202.852,179.986 203.517,178.746 293.333,226.905 293.333,228.501 		
			"/>
		<polygon clip-path="url(#SVGID_2_)" fill="#88B6D6" points="203.517,178.746 204.181,177.506 293.333,225.309 293.333,226.905 		
			"/>
		<polygon clip-path="url(#SVGID_2_)" fill="#89B6D6" points="204.181,177.506 204.846,176.266 293.333,223.713 293.333,225.309 		
			"/>
		<polygon clip-path="url(#SVGID_2_)" fill="#8AB7D7" points="204.846,176.266 205.511,175.027 293.333,222.117 293.333,223.713 		
			"/>
		<polygon clip-path="url(#SVGID_2_)" fill="#8BB8D7" points="205.511,175.027 206.176,173.787 293.333,220.52 293.333,222.117 		
			"/>
		<polygon clip-path="url(#SVGID_2_)" fill="#8CB8D7" points="206.176,173.787 206.84,172.547 293.333,218.924 293.333,220.52 		"/>
		<polygon clip-path="url(#SVGID_2_)" fill="#8DB9D8" points="206.84,172.547 207.505,171.307 293.333,217.328 293.333,218.924 		
			"/>
		<polygon clip-path="url(#SVGID_2_)" fill="#8EB9D8" points="207.505,171.307 208.17,170.068 293.333,215.732 293.333,217.328 		
			"/>
		<polygon clip-path="url(#SVGID_2_)" fill="#90BAD9" points="208.17,170.068 208.835,168.828 293.333,214.136 293.333,215.732 		
			"/>
		<polygon clip-path="url(#SVGID_2_)" fill="#91BBD9" points="208.835,168.828 209.499,167.588 293.333,212.539 293.333,214.136 		
			"/>
		<polygon clip-path="url(#SVGID_2_)" fill="#92BBD9" points="209.499,167.588 210.164,166.348 293.333,210.943 293.333,212.539 		
			"/>
		<polygon clip-path="url(#SVGID_2_)" fill="#93BCDA" points="210.164,166.348 210.829,165.109 293.333,209.347 293.333,210.943 		
			"/>
		<polygon clip-path="url(#SVGID_2_)" fill="#94BCDA" points="210.829,165.109 211.494,163.869 293.333,207.751 293.333,209.347 		
			"/>
		<polygon clip-path="url(#SVGID_2_)" fill="#95BDDB" points="211.494,163.869 212.158,162.629 293.333,206.155 293.333,207.751 		
			"/>
		<polygon clip-path="url(#SVGID_2_)" fill="#96BEDB" points="212.158,162.629 212.823,161.389 293.333,204.558 293.333,206.155 		
			"/>
		<polygon clip-path="url(#SVGID_2_)" fill="#97BEDB" points="212.823,161.389 213.488,160.15 293.333,202.962 293.333,204.558 		
			"/>
		<polygon clip-path="url(#SVGID_2_)" fill="#98BFDC" points="213.488,160.15 214.153,158.91 293.333,201.366 293.333,202.962 		"/>
		<polygon clip-path="url(#SVGID_2_)" fill="#9AC0DC" points="214.153,158.91 214.79,157.721 214.912,157.721 293.333,199.77 
			293.333,201.366 		"/>
		<polygon clip-path="url(#SVGID_2_)" fill="#9BC0DC" points="217.888,157.721 293.333,198.174 293.333,199.77 214.912,157.721 		
			"/>
		<polygon clip-path="url(#SVGID_2_)" fill="#9CC1DD" points="220.865,157.721 293.333,196.578 293.333,198.174 217.888,157.721 		
			"/>
		<polygon clip-path="url(#SVGID_2_)" fill="#9DC2DD" points="223.842,157.721 293.333,194.981 293.333,196.578 220.865,157.721 		
			"/>
		<polygon clip-path="url(#SVGID_2_)" fill="#9EC2DE" points="226.819,157.721 293.333,193.385 293.333,194.981 223.842,157.721 		
			"/>
		<polygon clip-path="url(#SVGID_2_)" fill="#9FC3DE" points="229.796,157.721 293.333,191.789 293.333,193.385 226.819,157.721 		
			"/>
		<polygon clip-path="url(#SVGID_2_)" fill="#A0C3DE" points="232.773,157.721 293.333,190.193 293.333,191.789 229.796,157.721 		
			"/>
		<polygon clip-path="url(#SVGID_2_)" fill="#A1C4DF" points="235.75,157.721 293.333,188.597 293.333,190.193 232.773,157.721 		
			"/>
		<polygon clip-path="url(#SVGID_2_)" fill="#A3C5DF" points="238.727,157.721 293.333,187 293.333,188.597 235.75,157.721 		"/>
		<polygon clip-path="url(#SVGID_2_)" fill="#A4C5E0" points="241.704,157.721 293.333,185.404 293.333,187 238.727,157.721 		"/>
		<polygon clip-path="url(#SVGID_2_)" fill="#A5C6E0" points="244.68,157.721 293.333,183.808 293.333,185.404 241.704,157.721 		
			"/>
		<polygon clip-path="url(#SVGID_2_)" fill="#A6C7E0" points="247.657,157.721 293.333,182.212 293.333,183.808 244.68,157.721 		
			"/>
		<polygon clip-path="url(#SVGID_2_)" fill="#A7C7E1" points="250.634,157.721 293.333,180.616 293.333,182.212 247.657,157.721 		
			"/>
		<polygon clip-path="url(#SVGID_2_)" fill="#A8C8E1" points="253.611,157.721 293.333,179.019 293.333,180.616 250.634,157.721 		
			"/>
		<polygon clip-path="url(#SVGID_2_)" fill="#A9C9E1" points="256.588,157.721 293.333,177.423 293.333,179.019 253.611,157.721 		
			"/>
		<polygon clip-path="url(#SVGID_2_)" fill="#AAC9E2" points="259.565,157.721 293.333,175.827 293.333,177.423 256.588,157.721 		
			"/>
		<polygon clip-path="url(#SVGID_2_)" fill="#ABCAE2" points="262.542,157.721 293.333,174.231 293.333,175.827 259.565,157.721 		
			"/>
		<polygon clip-path="url(#SVGID_2_)" fill="#ACCAE3" points="265.519,157.721 293.333,172.635 293.333,174.231 262.542,157.721 		
			"/>
		<polygon clip-path="url(#SVGID_2_)" fill="#ADCBE3" points="268.495,157.721 293.333,171.038 293.333,172.635 265.519,157.721 		
			"/>
		<polygon clip-path="url(#SVGID_2_)" fill="#AFCCE3" points="271.472,157.721 293.333,169.442 293.333,171.038 268.495,157.721 		
			"/>
		<polygon clip-path="url(#SVGID_2_)" fill="#B0CCE4" points="274.449,157.721 293.333,167.846 293.333,169.442 271.472,157.721 		
			"/>
		<polygon clip-path="url(#SVGID_2_)" fill="#B1CDE4" points="277.426,157.721 293.333,166.25 293.333,167.846 274.449,157.721 		
			"/>
		<polygon clip-path="url(#SVGID_2_)" fill="#B2CEE4" points="280.403,157.721 293.333,164.654 293.333,166.25 277.426,157.721 		
			"/>
		<polygon clip-path="url(#SVGID_2_)" fill="#B3CEE5" points="283.38,157.721 293.333,163.058 293.333,164.654 280.403,157.721 		
			"/>
		<polygon clip-path="url(#SVGID_2_)" fill="#B4CFE5" points="286.357,157.721 293.333,161.461 293.333,163.058 283.38,157.721 		
			"/>
		<polygon clip-path="url(#SVGID_2_)" fill="#B5D0E6" points="289.334,157.721 293.333,159.865 293.333,161.461 286.357,157.721 		
			"/>
		<polygon clip-path="url(#SVGID_2_)" fill="#B6D0E6" points="292.31,157.721 293.333,158.269 293.333,159.865 289.334,157.721 		
			"/>
		<polygon clip-path="url(#SVGID_2_)" fill="#B7D1E6" points="293.333,158.269 292.31,157.721 293.333,157.721 		"/>
	</g>
</g>
</svg>
