<?xml version="1.0" encoding="utf-8"?>
<!-- Generator: Adobe Illustrator 17.0.0, SVG Export Plug-In . SVG Version: 6.00 Build 0)  -->
<!DOCTYPE svg PUBLIC "-//W3C//DTD SVG 1.1//EN" "http://www.w3.org/Graphics/SVG/1.1/DTD/svg11.dtd">
<svg version="1.1" id="Layer_1" xmlns="http://www.w3.org/2000/svg" xmlns:xlink="http://www.w3.org/1999/xlink" x="0px" y="0px"
	 width="282.051px" height="282.051px" viewBox="0 0 282.051 282.051" enable-background="new 0 0 282.051 282.051"
	 xml:space="preserve">
<path fill="none" stroke="#F2E5F2" stroke-width="48.0769" stroke-linecap="round" stroke-linejoin="round" stroke-miterlimit="10" d="
	M141.026,122.955"/>
<linearGradient id="SVGID_1_" gradientUnits="userSpaceOnUse" x1="63.0353" y1="286.4771" x2="219.016" y2="-4.4258">
	<stop  offset="0" style="stop-color:#0070A5"/>
	<stop  offset="0.1646" style="stop-color:#0085B5"/>
	<stop  offset="0.5789" style="stop-color:#9EC2DE"/>
	<stop  offset="0.8661" style="stop-color:#E4EEF7"/>
	<stop  offset="1" style="stop-color:#FFFFFF"/>
</linearGradient>
<path fill="none" stroke="url(#SVGID_1_)" stroke-width="32.0513" stroke-linecap="round" stroke-linejoin="round" stroke-miterlimit="10" d="
	M16.026,114.003v-40.97c0-31.484,25.622-57.008,57.228-57.008h41.021 M16.026,114.003 M16.026,167.999v41.019
	c0,31.484,25.622,57.008,57.228,57.008h40.774 M168.158,266.026h40.64c31.606,0,57.228-25.523,57.228-57.008V167.68 M266.026,167.68
	 M266.026,114.266 M266.026,114.266V73.033c0-31.484-25.622-57.008-57.228-57.008h-40.731 M168.066,16.026 M114.275,16.026"/>
<g>
</g>
<g>
</g>
<g>
</g>
<g>
</g>
<g>
</g>
<g>
</g>
</svg>
